# xmcd
#
# Track frame offsets:
#	150
#	26378
#	47510
#	68941
#	87899
#	116007
#	146140
#	185123
#	204156
#	229713
#	251069
#
# Disc length: 3648 seconds
#
# Revision: 2
# Processed by: cddbd v1.5.1PL2 Copyright (c) Steve Scherf et al.
# Submitted via: EasyCDDAExtractor 8.0.2.1
#
DISCID=970e3e0b
DTITLE=Saxon - The Station Warwick 31-10-00 Disc 1
DYEAR=2000
DGENRE=Hard Rock
TTITLE0=Metalhead
TTITLE1=Motorcycle Man
TTITLE2=Dogs Of War
TTITLE3=Song Of Evil
TTITLE4=Power and Glory
TTITLE5=The Thin Red Line
TTITLE6=The Eagle Has Landed
TTITLE7=20 000 Feet
TTITLE8=Denim and Leather
TTITLE9=Conquistador
TTITLE10=Drum Solo
EXTD=
EXTT0=
EXTT1=
EXTT2=
EXTT3=
EXTT4=
EXTT5=
EXTT6=
EXTT7=
EXTT8=
EXTT9=
EXTT10=
PLAYORDER=
